<?xml version="1.0" encoding="utf-8"?>
<!-- Generator: Adobe Illustrator 27.5.0, SVG Export Plug-In . SVG Version: 6.00 Build 0)  -->
<svg width="250" height="100" version="1.1" xmlns="http://www.w3.org/2000/svg" xmlns:xlink="http://www.w3.org/1999/xlink" x="0px" y="0px"
	 viewBox="0 0 1122 1122" style="enable-background:new 0 0 1122 1122;" xml:space="preserve">
<g id="Background">
	<rect style="fill:#FFFFFF;" width="1122" height="1122"/>
</g>
<g id="Object">
	<g>
		<g>
			<path style="fill:#E1DAC8;" d="M874.982,366.935c20.812,43.315,48.401,271.986-67.762,409.658
				c-116.164,137.672-338.811,73.873-403.346,43.652c-64.535-30.221-132.298-110.809-161.338-171.25s-9.68-235.049,87.123-295.491
				c96.803-60.441,129.071-104.093,312.996-90.662S868.528,353.503,874.982,366.935z"/>
			<path style="opacity:0.3;fill:#FFFFFF;" d="M713.7,714.942c0.652-0.945,0.893-1.876,0.84-2.739
				c64.617-64.543,97.423-163.701,72.674-253.048c-13.847-49.987-47.322-84.269-93.837-105.829
				c-40.918-18.966-86.823-31.484-132.236-28.277c-97.845,6.91-167.349,103.548-190.298,191.994
				c-23.515,90.626,5.17,191.902,83.562,247.016C537.575,822.534,656.559,797.684,713.7,714.942z M374.588,547.121
				c6.334-43.902,24.405-85.766,49.665-122.046c27.184-39.041,63.275-75.217,110.916-86.436
				c40.436-9.521,83.326-2.764,122.112,10.516c45.701,15.648,89.403,40.241,110.714,85.567
				c45.173,96.077,2.457,217.492-74.359,283.703c-2.424,2.09-1.8,4.905,0.009,6.613c-51.273,58.783-140.955,80.055-211.839,44.187
				C401.114,728.396,362.027,634.172,374.588,547.121z"/>
		</g>
		<g>
			<path style="fill:#FFFFFF;" d="M375.879,558.099l18.488,5.35c0,0,20.879-32.704,33.642-30.177
				c12.763,2.527,102.902,45.704,95.604,58.074c-7.298,12.37-18.726,15.632-44.571,0.383c-25.846-15.249-27.999,1.823-20.506,7.912
				c7.494,6.089,46.992,27.725,37.505,43.806c-9.487,16.08-56.07-23.076-58.099-14.268c-2.029,8.808,43.219,42.174,34.016,55.087
				c-9.203,12.913-97.473-44.169-101.603-53.275c-4.13-9.107,4.307-34.144,4.592-37.311S329.872,569.864,375.879,558.099z"/>
			<path style="fill:#5B4536;" d="M383.663,546.695c1.484-7.895-248.23-161.772-259.969-155.296
				c-11.74,6.477-23.973,29.894-25.813,38.382c-1.84,8.488,244.705,159.693,251.417,161.738
				C356.01,593.565,378.479,574.272,383.663,546.695z"/>
		</g>
		<g>
			<path style="fill:#FFFFFF;" d="M758.091,518.869c0,0-22.512,13.42-21.646,15.041c0.866,1.621,14.918,31.616-24.718,61.134
				c-39.636,29.517-88.993,37.143-117.383-12.277c-28.391-49.42,43.681-91.38,73.59-95.587c42.333-5.955,53.787,19.178,58.405,16.71
				C730.956,501.421,762.319,486.049,758.091,518.869z"/>
			<path style="fill:#966B3C;" d="M756.265,536.963c5.972,5.374,267.273-127.881,267.847-141.277s-13.065-36.023-19.358-42.009
				c-6.292-5.986-263.663,125.952-268.901,130.622C730.615,488.968,735.407,518.193,756.265,536.963z"/>
		</g>
	</g>
</g>
</svg>
